<mxfile host="app.diagrams.net" modified="2024-02-16T12:43:24.315Z" agent="Mozilla/5.0 (Macintosh; Intel Mac OS X 10_15_7) AppleWebKit/537.36 (KHTML, like Gecko) Chrome/120.0.0.0 Safari/537.36" version="22.1.19" etag="hK26UnghLN76DY9AKKi-" type="github">
  <diagram name="Page-1" id="-m4dXFLHu43LoLaNj6vg">
    <mxGraphModel>
      <root>
        <mxCell id="0" />
        <mxCell id="1" parent="0" />
      </root>
    </mxGraphModel>
  </diagram>
</mxfile>
